# xmcd
#
# Track frame offsets: 
#        150
#        18676
#        32479
#        41609
#        54936
#        74988
#        87829
#        107175
#        136556
#        160658
#        176840
#        193792
#        210822
#        235431
#        257071
#
# Disc length: 3668 seconds
#
# Revision: 1
# Processed by: cddbd v1.5.2PL0 Copyright (c) Steve Scherf et al.
# Submitted via: ExactAudioCopy v1.1
#
DISCID=cc0e520f
DTITLE=The Stranglers - Old Testament 1977-1982 [CD5]
DYEAR=2013
DGENRE=Rock
TTITLE0=Peaches (Radio Edit)
TTITLE1=Celia and The Mutations - Mony Mony
TTITLE2=Celia and The Mutations - Mean To Me
TTITLE3=No More Heroes (Radio Edit)
TTITLE4=Walk On By (Radio Edit)
TTITLE5=Sverige (Jag Är Insnöad På Östfronten)
TTITLE6=N'Emmenes Pas Harry
TTITLE7=Bear Cage (12" Extended Mix)
TTITLE8=Shah Shah A Go Go (12" Version)
TTITLE9=The Meninblack (Waiting For 'Em)
TTITLE10=La Folie (Radio Edit)
TTITLE11=Peasant In The Big Shitty (Live at The Nashville '76)
TTITLE12=Tits (Live at The Hope And Anchor)
TTITLE13=In The Shadows (Live at The Hope And Anchor)
TTITLE14=Grip '89 (Get A) Grip (On Yourself)
EXTD=
EXTT0=
EXTT1=
EXTT2=
EXTT3=
EXTT4=
EXTT5=
EXTT6=
EXTT7=
EXTT8=
EXTT9=
EXTT10=
EXTT11=
EXTT12=
EXTT13=
EXTT14=
PLAYORDER=
